EMG
version=1
nRows=41
nColumns=17
inDegrees=no
endheader
time	_right_gast_med	_right_glut_max	_left_gast_med	_left_glut_max	_right_glut_med	_right_bic_fem	_right_rect_fem	_right_vast_lat	_right_vast_med	_right_tens_fasc_lat	_left_glut_med	_left_bic_fem	_left_rect_fem	_left_vast_lat	_left_vast_med	_left_tens_fasc_lat
      0.55000000	      2.67026424	      0.05607884	      0.01076133	     -0.20222187	     -0.01241658	      0.04651383	     -0.03543136	     -0.04256872	     -0.05984000	     -0.01332306	      0.00646776	     -0.02887505	      0.01646172	      0.00195019	     -0.05693676	      0.02756285
      0.56000000	      1.24560845	      0.02115619	      0.02936652	     -0.26352909	      0.00105365	      0.00599830	     -0.02519889	     -0.02079669	     -0.10418551	     -0.02725416	      0.00506712	     -0.04657958	      0.01186664	     -0.02265554	     -0.02351037	      0.05730261
      0.57000000	      0.06678858	     -0.01912487	      0.04342049	     -0.19224922	      0.00799565	     -0.01733679	     -0.01529361	      0.01881795	     -0.13961852	     -0.01154713	     -0.00021077	     -0.05045816	     -0.00902172	     -0.01428454	      0.01924765	      0.04802246
      0.58000000	     -0.27150774	     -0.02080065	      0.04583915	     -0.03371331	     -0.00646974	     -0.01533696	     -0.00063894	      0.01913619	     -0.08780861	      0.03079689	     -0.00630637	     -0.02419117	     -0.02037885	      0.01496250	      0.02584634	      0.02049582
      0.59000000	     -0.42144129	     -0.00730246	      0.03189468	      0.11296985	     -0.02666427	     -0.00398753	      0.01603646	      0.00975105	      0.03777007	      0.04982673	      0.00246802	      0.02933677	     -0.00676635	      0.03946201	      0.02046062	      0.00034501
      0.60000000	     -0.46748734	      0.06828773	      0.00715934	      0.10054215	     -0.03248449	      0.00584837	      0.02080084	      0.02290525	      0.13044327	      0.03841066	      0.01961334	      0.07957397	      0.00523560	      0.05851608	      0.03713860	     -0.02110766
      0.61000000	     -0.27614576	      0.11280329	     -0.01831786	      0.04380290	     -0.02552253	      0.01857881	      0.01938559	      0.02499376	      0.11660384	      0.02063517	      0.02778879	      0.08817475	      0.02075107	      0.03644802	      0.04317794	     -0.02247784
      0.62000000	     -0.11772041	      0.04968096	     -0.01704180	      0.10492251	     -0.00735320	      0.02675202	      0.02797842	      0.02092046	      0.01503960	      0.01358363	      0.02341137	      0.06593124	      0.01720004	      0.00054664	      0.00536837	     -0.00009077
      0.63000000	      0.03214364	     -0.01695621	      0.01921902	      0.15396117	      0.01351524	      0.02759228	      0.03751403	      0.00967782	     -0.05903525	      0.02534850	      0.02512145	      0.04236376	      0.00946853	     -0.01577997	     -0.03537729	      0.01807740
      0.64000000	     -0.17430915	     -0.05810930	      0.03088624	      0.13516256	      0.02267219	      0.02633470	      0.03085143	      0.00240829	     -0.05762051	      0.03633495	      0.02772934	      0.02792185	      0.00550243	     -0.00300603	     -0.03063049	      0.02029647
      0.65000000	     -0.97884822	     -0.10707749	     -0.00371430	      0.07037429	      0.02024635	      0.01974228	      0.01778355	      0.00821484	     -0.03981123	      0.02883602	      0.02775715	      0.02128627	     -0.00086620	      0.00729403	      0.00655257	      0.01023322
      0.66000000	     -0.73315376	     -0.12222489	     -0.02682086	      0.03702112	      0.02092734	      0.00244422	      0.00632898	      0.01450967	     -0.02971440	      0.01166960	      0.02351414	      0.01509034	     -0.00153205	      0.00183877	      0.02171898	      0.00069705
      0.67000000	      0.96144831	     -0.09811733	     -0.01311765	      0.04506898	      0.02885500	     -0.00819014	     -0.00157314	      0.01722436	     -0.02222864	      0.00247805	      0.01044012	      0.00775733	      0.00575347	     -0.00277052	      0.00470628	     -0.00251961
      0.68000000	      1.47047186	     -0.06746659	      0.00842371	      0.04962149	      0.02879944	     -0.00865041	     -0.00317803	      0.00095383	     -0.01167097	     -0.00359358	      0.00305928	     -0.00584095	      0.01499850	     -0.00948887	     -0.01099675	     -0.00802643
      0.69000000	      0.19938046	     -0.04041719	      0.02019007	      0.04870427	      0.02287368	     -0.00291585	     -0.00154512	     -0.00834134	     -0.00593616	      0.00006742	      0.00589075	     -0.02477231	      0.01702348	     -0.01376329	     -0.01365457	     -0.01471325
      0.70000000	     -0.31603840	     -0.03174623	      0.01665346	      0.03409698	      0.01898556	      0.00789975	      0.00282448	      0.00119061	     -0.00353474	      0.00815503	      0.01630075	     -0.00955563	      0.01464698	     -0.00846456	     -0.01708661	     -0.01021438
      0.71000000	     -0.28670686	     -0.00992798	      0.01119840	      0.02441894	      0.01865780	      0.01472370	      0.00426200	      0.00488440	     -0.00307798	      0.00862740	      0.01956824	      0.00934391	      0.01629436	     -0.00626709	     -0.01395976	      0.00027012
      0.72000000	     -0.19452821	      0.03718933	      0.01636090	      0.02655107	      0.01815218	      0.01437886	      0.00397206	      0.00896763	     -0.00221563	      0.01261463	      0.01053908	     -0.00996905	      0.01918024	     -0.00600067	     -0.00285355	      0.00607596
      0.73000000	     -0.14692920	      0.05448853	      0.01844533	      0.02385450	      0.00563461	      0.01293430	      0.00710551	      0.01946785	      0.00518422	      0.01747307	     -0.00152934	     -0.03780610	      0.01841330	     -0.00638319	      0.01413886	      0.00602961
      0.74000000	     -0.12786674	      0.11672561	      0.01152258	      0.01724077	     -0.01623498	      0.01571670	      0.00933332	      0.02576990	      0.00520287	      0.01798062	     -0.00543692	     -0.03415872	      0.01990433	     -0.00785990	      0.03494953	      0.01078181
      0.75000000	     -0.10171576	      0.20134415	      0.00915040	      0.00386935	     -0.01540844	      0.01471326	      0.00769226	      0.03748121	     -0.01733563	      0.01712425	     -0.00383768	     -0.01735723	      0.01902364	     -0.00652675	      0.04272337	      0.01844895
      0.76000000	     -0.07094476	      0.17615132	      0.01244621	     -0.01649613	      0.00181351	      0.01979898	      0.00527746	      0.03942404	     -0.04306749	      0.01351295	      0.00042708	     -0.01948922	      0.01330164	     -0.00013836	      0.03689876	      0.02079551
      0.77000000	     -0.02020462	      0.08135174	      0.01232606	     -0.02782809	      0.00939704	      0.01237863	      0.00680985	      0.03314556	     -0.02201961	      0.00117668	      0.00260641	     -0.00959579	      0.00661191	      0.00764323	      0.01862019	      0.02168482
      0.78000000	      0.02432738	      0.01558392	      0.00890683	     -0.01836010	      0.01030903	      0.01617617	      0.00483068	      0.02640512	      0.02492677	     -0.01098648	      0.00254023	      0.03117981	      0.00829888	      0.02297255	      0.00023471	      0.01640493
      0.79000000	      0.02359408	     -0.00445318	      0.00101267	     -0.01467361	      0.00984450	      0.02741885	      0.01007667	      0.01074178	      0.05706380	     -0.00977830	      0.00533174	      0.04903756	      0.00802371	      0.02843543	     -0.00864949	      0.01588576
      0.80000000	     -0.04507522	     -0.00002957	      0.00149315	     -0.03026754	      0.00761838	      0.01697372	      0.01893871	     -0.00346239	      0.07787811	     -0.00023106	      0.00525519	      0.03554352	      0.01031741	      0.01789146	     -0.01687182	      0.02237388
      0.81000000	      0.06687362	      0.00251787	      0.01312498	     -0.02882249	      0.00911453	      0.01726693	      0.01605547	     -0.01364173	      0.08793110	     -0.00284590	      0.00278987	      0.01424702	      0.01929049	      0.00385426	     -0.01184672	      0.02327418
      0.82000000	      0.03710371	     -0.00518729	      0.01953838	     -0.00502769	      0.00805362	      0.01199354	      0.01278200	     -0.02071909	      0.05278963	     -0.01412063	      0.00180733	      0.00090063	      0.01874811	      0.00575733	     -0.00747877	      0.02628173
      0.83000000	     -0.07999424	     -0.00928441	      0.01162910	      0.01917331	     -0.00537703	      0.00923950	      0.01175550	     -0.01054190	     -0.03313775	     -0.01944943	      0.00354237	     -0.00533223	      0.00669319	      0.02148517	     -0.00508575	      0.02939381
      0.84000000	     -0.23179853	     -0.01229136	     -0.00074185	      0.02850530	     -0.01281865	      0.00180276	      0.01438648	      0.01522207	     -0.11461052	     -0.01266851	      0.00120925	     -0.00403148	      0.00036232	      0.01905939	     -0.02874744	      0.02651551
      0.85000000	     -0.13930812	     -0.01816669	     -0.00745035	     -0.00037935	     -0.00807353	     -0.00464143	      0.01883519	      0.02055433	     -0.12377943	     -0.00401534	     -0.00022058	      0.01034103	      0.01692786	      0.00645782	     -0.13976616	      0.01840166
      0.86000000	      0.67991292	     -0.00918244	     -0.00310146	     -0.03012332	     -0.00137072	      0.00097344	      0.02019064	      0.01090975	     -0.07761788	      0.00581259	      0.00227965	      0.01937932	      0.02728071	      0.00209041	     -0.24920553	      0.00139333
      0.87000000	      1.60943258	      0.00574913	      0.01155879	     -0.02542300	      0.00832692	      0.00338027	      0.01063952	     -0.00320112	     -0.01636739	      0.01424163	      0.00292440	      0.03522040	      0.00894630	      0.00221834	     -0.19544899	     -0.01202013
      0.88000000	      1.63445699	      0.00315241	      0.01630505	     -0.00838521	      0.02101886	      0.00512050	     -0.00200499	     -0.00698589	      0.03516608	      0.02188974	      0.00489300	      0.03802558	     -0.00757409	      0.00448971	      0.00165799	     -0.01849331
      0.89000000	     -0.35027492	     -0.00202242	      0.00642158	      0.00963108	      0.03013497	      0.00922765	     -0.00229419	      0.00444713	      0.06293086	      0.02118736	      0.00792059	      0.00446701	     -0.00207798	      0.00548793	      0.21545200	     -0.02486308
      0.90000000	     -2.03407168	     -0.00695386	      0.00056508	      0.02022993	      0.04011716	      0.01294703	      0.00258812	      0.01341171	      0.06719097	      0.01472350	      0.01511860	     -0.00806608	      0.00936703	      0.00380598	      0.30069670	     -0.02977370
      0.91000000	     -1.39361107	     -0.01902343	      0.00681429	      0.00756592	      0.03853993	      0.01404178	      0.00339494	      0.01216668	      0.06172635	      0.01408769	      0.02034301	     -0.00753046	      0.00361947	      0.02239065	      0.25175524	     -0.03495063
      0.92000000	      0.57550389	     -0.01723705	      0.01890315	      0.00050714	      0.02603353	      0.01206718	     -0.00187441	      0.00704216	      0.05342688	      0.01347406	      0.01100559	      0.01680504	     -0.00582296	      0.05502438	      0.14082517	     -0.03674084
      0.93000000	      0.53842413	      0.00394261	      0.01195526	      0.01558229	      0.01218527	      0.01212933	     -0.00711863	      0.00384091	      0.04473093	      0.01131209	     -0.00752908	      0.04406646	      0.00859579	      0.05254087	      0.03566242	     -0.00897989
      0.94000000	     -1.13352168	      0.02090107	     -0.01618825	     -0.00676135	      0.01111321	      0.01192580	     -0.00822373	      0.00719049	      0.03699659	      0.00871793	     -0.00371021	      0.01952080	     -0.01322933	      0.04622257	      0.00853391	      0.02799986
      0.95000000	     -0.98820984	      0.01589600	     -0.02099602	     -0.03907615	      0.01653831	      0.00424312	     -0.00573342	      0.00947192	      0.03692925	      0.00654553	      0.00483533	     -0.02681643	     -0.02664874	      0.03516198	      0.05849687	      0.02406773
